<svg width="23" height="20" viewBox="0 0 23 20" fill="" xmlns="http://www.w3.org/2000/svg">
<path fill-rule="evenodd" clip-rule="evenodd" d="M6.53886 1.5544C3.79038 1.5544 1.5544 3.79348 1.5544 6.56995C1.5544 9.93836 3.10951 12.6372 5.06656 14.6424C7.03298 16.6572 9.35746 17.9191 10.7485 18.394L10.7561 18.3966L10.7561 18.3966C10.8232 18.4203 10.9623 18.4456 11.1399 18.4456C11.3175 18.4456 11.4566 18.4203 11.5237 18.3966L11.5313 18.394L11.5313 18.394C12.9223 17.9191 15.2468 16.6572 17.2132 14.6424C19.1703 12.6372 20.7254 9.93836 20.7254 6.56995C20.7254 3.79348 18.4894 1.5544 15.7409 1.5544C14.1221 1.5544 12.6705 2.34105 11.7639 3.56183C11.6172 3.75926 11.3858 3.87565 11.1399 3.87565C10.894 3.87565 10.6626 3.75926 10.5159 3.56183C9.60886 2.34041 8.16733 1.5544 6.53886 1.5544ZM0 6.56995C0 2.94228 2.92465 0 6.53886 0C8.33859 0 9.96328 0.731592 11.1402 1.91162C12.3196 0.731232 13.9504 0 15.7409 0C19.3551 0 22.2798 2.94228 22.2798 6.56995C22.2798 10.4554 20.4774 13.5234 18.3256 15.7281C16.1848 17.9216 13.6512 19.312 12.037 19.8639C11.7527 19.9634 11.4272 20 11.1399 20C10.8526 20 10.5271 19.9634 10.2428 19.8639C8.62854 19.312 6.09502 17.9216 3.95416 15.7281C1.8024 13.5234 0 10.4554 0 6.56995Z" fill=""/>
</svg>
